{"title":"House of 1000 Corpses (2003) 720p x264 Rerip","uid":11114086,"size":967233543,"categoryP":"video","categoryS":"hd___movies","magnet":"?xt=urn:btih:d021c5d2f05a56d4c6f9445690180a1298f20ae9&amp;dn=House+of+1000+Corpses+%282003%29+720p+x264+Rerip&amp;tr=udp%3A%2F%2Ftracker.openbittorrent.com%3A80&amp;tr=udp%3A%2F%2Fopen.demonii.com%3A1337&amp;tr=udp%3A%2F%2Ftracker.coppersurfer.tk%3A6969&amp;tr=udp%3A%2F%2Fexodus.desync.com%3A6969","seeders":0,"leechers":0,"uploader":"downloather","files":1,"time":1411842593,"description":"Input #0, mov,mp4,m4a,3gp,3g2,mj2, from 'House Of 1000 Corpses.mp4':\n  Metadata:\n    major_brand     : isom\n    minor_version   : 512\n    compatible_brands: isomiso2avc1mp41\n    encoder         : Lavf54.63.104\n  Duration: 01:28:57.33, start: 0.417000, bitrate: 1449 kb/s\n    Stream #0:0(und): Video: h264 (High) (avc1 / 0x31637661), yuv420p, 1280x720 [SAR 1:1 DAR 16:9], 1213 kb/s, 23.98 fps, 23.98 tbr, 24k tbn, 47.95 tbc\n    Metadata:\n      handler_name    : VideoHandler\n    Stream #0:1(eng): Audio: aac (mp4a / 0x6134706D), 48000 Hz, stereo, fltp, 231 kb/s\n    Metadata:\n      handler_name    : SoundHandler\n\nThis is a rerip from this one: https://thepiratebay.se/torrent/11069640/House_of_1000_Corpses__amp__BluRay_Xtras_(2002)_1080p\n\nThe big advantage is that it's not that big and is watchable on a 55&quot; TV.\n\nEnjoy :)","torrent":{"xt":"urn:btih:d021c5d2f05a56d4c6f9445690180a1298f20ae9","amp;dn":"House+of+1000+Corpses+%282003%29+720p+x264+Rerip","amp;tr":["udp%3A%2F%2Ftracker.openbittorrent.com%3A80","udp%3A%2F%2Fopen.demonii.com%3A1337","udp%3A%2F%2Ftracker.coppersurfer.tk%3A6969","udp%3A%2F%2Fexodus.desync.com%3A6969"],"infoHash":"d021c5d2f05a56d4c6f9445690180a1298f20ae9","infoHashBuffer":{"type":"Buffer","data":[208,33,197,210,240,90,86,212,198,249,68,86,144,24,10,18,152,242,10,233]},"announce":[],"urlList":[]}}